<?xml version="1.0" encoding="UTF-8"?>
<svg width="341px" height="194px" viewBox="0 0 341 194" version="1.1" xmlns="http://www.w3.org/2000/svg" xmlns:xlink="http://www.w3.org/1999/xlink">
    <title>Group 30</title>
    <defs>
        <polygon id="path-1" points="0.0654 0.4771 71.5204 0.4771 71.5204 63 0.0654 63"></polygon>
        <polygon id="path-3" points="0.3044 0.4775 47.8674 0.4775 47.8674 63 0.3044 63"></polygon>
        <polygon id="path-5" points="0.6385 0.1963 45.6325 0.1963 45.6325 75 0.6385 75"></polygon>
        <polygon id="path-7" points="0 0.2018 77.8194 0.2018 77.8194 87.2878 0 87.2878"></polygon>
        <polygon id="path-9" points="0.0397 0.853 69.7087 0.853 69.7087 92.4049 0.0397 92.4049"></polygon>
        <polygon id="path-11" points="0.15 0.853 32.417 0.853 32.417 91.2882 0.15 91.2882"></polygon>
        <polygon id="path-13" points="0.9183 0.8818 57.525 0.8818 57.525 63.4048 0.9183 63.4048"></polygon>
    </defs>
    <g id="Public-Trust-Final" stroke="none" stroke-width="1" fill="none" fill-rule="evenodd">
        <g id="Public-Trust-Landing-Page" transform="translate(-550.000000, -298.000000)">
            <g id="Group-30" transform="translate(550.000000, 298.000000)">
                <path d="M107.5173,104.9444 L109.4153,131.2944 L102.2703,131.2944 C96.1293,117.8954 93.6723,111.9774 82.3963,111.9774 L75.0283,111.9774 L75.0283,176.9584 C75.0283,183.9914 78.6003,185.3314 86.9743,185.6674 L86.9743,192.0304 L45.2173,192.0304 L45.2173,185.6674 C53.5913,185.3314 57.1633,183.9914 57.1633,176.9584 L57.1633,111.9774 L49.7943,111.9774 C38.6303,111.9774 36.1733,117.8954 29.9213,131.2944 L22.8873,131.2944 L24.6743,104.9444 L107.5173,104.9444 Z" id="Fill-1" fill="#FFFFFF"></path>
                <path d="M127.1677,148.8223 C132.9737,136.6533 138.1087,130.6243 146.8177,130.6243 C149.4977,130.6243 151.1717,131.2943 152.2887,132.1863 L152.2887,146.2553 L148.6047,146.2553 C141.4587,146.2553 133.5317,147.4823 127.1677,153.7353 L127.1677,179.6373 C127.1677,184.9973 129.9587,185.3313 137.3277,186.2243 L137.3277,192.0303 L102.8277,192.0303 L102.8277,186.2243 C107.9637,185.5543 110.6437,184.9973 110.6437,179.8603 L110.6437,144.8023 L103.3867,139.5553 L103.3867,136.2063 L123.5947,130.4003 L127.7267,130.4003 L127.1677,148.8223 Z" id="Fill-3" fill="#FFFFFF"></path>
                <g id="Group-7" transform="translate(152.000000, 130.147000)">
                    <mask id="mask-2" fill="white">
                        <use xlink:href="#path-1"></use>
                    </mask>
                    <g id="Clip-6"></g>
                    <path d="M46.8464,52.0581 C42.4924,57.6411 35.5694,63.0001 25.7444,63.0001 C15.2484,63.0001 7.7684,57.4171 7.7684,44.3541 L7.7684,16.3301 C7.7684,12.6471 6.4294,10.8601 1.9624,10.0791 L0.0654,9.7441 L0.0654,4.2721 L21.1664,0.4771 L24.9624,0.4771 L24.4054,11.8651 L24.4054,41.8991 C24.4054,48.9321 27.9774,51.8341 33.4484,51.8341 C38.9184,51.8341 43.0494,49.6021 46.8464,47.0341 L46.8464,16.3301 C46.8464,12.6471 45.5064,10.8601 40.9284,10.0791 L39.0314,9.7441 L39.0314,4.2721 L60.1324,0.4771 L63.9284,0.4771 L63.3694,11.8651 L63.3694,47.4811 C63.3694,51.2771 64.4864,52.8401 68.7294,53.0631 L71.5204,53.1741 L71.5204,59.2041 L49.5254,63.0001 L46.2874,63.0001 L46.8464,52.0581 Z" id="Fill-5" fill="#FFFFFF" mask="url(#mask-2)"></path>
                </g>
                <g id="Group-10" transform="translate(225.000000, 130.147000)">
                    <mask id="mask-4" fill="white">
                        <use xlink:href="#path-3"></use>
                    </mask>
                    <g id="Clip-9"></g>
                    <path d="M0.9744,57.0825 L0.3044,42.4565 L7.7854,42.4565 C9.6834,51.5005 14.7074,56.3015 23.7504,56.3015 C30.4504,56.3015 35.0274,53.5105 35.0274,48.0395 C35.0274,43.2375 31.5664,41.5625 25.7604,40.1115 L17.4984,38.1025 C7.5624,35.7575 0.8634,30.5105 0.8634,19.2325 C0.8634,7.2875 9.7944,0.4775 23.7504,0.4775 C31.7894,0.4775 38.6004,2.1505 43.7364,5.3895 L43.7364,18.4515 L36.9254,18.4515 C35.0274,10.7485 30.3384,7.2875 22.8584,7.2875 C17.7224,7.2875 14.0374,9.7435 14.0374,14.4325 C14.0374,18.6755 16.4944,20.2385 21.5184,21.5785 L30.0034,23.6995 C41.1674,26.3795 47.8674,31.6265 47.8674,43.3505 C47.8674,56.0775 37.8194,63.0005 23.4154,63.0005 C13.7034,63.0005 5.9984,60.4325 0.9744,57.0825" id="Fill-8" fill="#FFFFFF" mask="url(#mask-4)"></path>
                </g>
                <g id="Group-13" transform="translate(271.000000, 118.147000)">
                    <mask id="mask-6" fill="white">
                        <use xlink:href="#path-5"></use>
                    </mask>
                    <g id="Clip-12"></g>
                    <path d="M25.7585,13.5933 L42.5065,13.5933 L42.5065,20.8503 L25.7585,20.8503 L25.7585,54.7913 C25.7585,61.7133 28.3265,64.3933 34.1325,64.3933 C37.3705,64.3933 40.7195,63.3883 43.6225,62.0483 L45.6325,66.5143 C41.5015,70.9813 35.1375,75.0003 26.3175,75.0003 C17.3855,75.0003 9.2355,70.6453 9.2355,57.9173 L9.2355,20.8503 L0.6385,20.8503 L0.6385,15.8263 C7.5605,12.8113 14.4825,7.2293 20.4005,0.1963 L25.7585,0.1963 L25.7585,13.5933 Z" id="Fill-11" fill="#FFFFFF" mask="url(#mask-6)"></path>
                </g>
                <g id="Group-16" transform="translate(0.000000, 4.147000)">
                    <mask id="mask-8" fill="white">
                        <use xlink:href="#path-7"></use>
                    </mask>
                    <g id="Clip-15"></g>
                    <path d="M29.1404,45.1968 L39.1884,45.1968 C52.8094,45.1968 58.9504,39.1678 58.9504,26.2168 C58.9504,15.0508 52.2514,7.6828 38.7424,7.6828 L29.1404,7.6828 L29.1404,45.1968 Z M29.1404,52.3428 L29.1404,72.2158 C29.1404,79.2498 34.1634,80.4778 44.4364,80.9248 L44.4364,87.2878 L-0.0006,87.2878 L-0.0006,80.9248 C8.3734,80.5898 11.2764,79.2498 11.2764,72.2158 L11.2764,15.2748 C11.2764,8.2408 8.3734,6.9018 -0.0006,6.5668 L-0.0006,0.2018 L43.8774,0.2018 C68.2174,0.2018 77.8194,12.0368 77.8194,25.8818 C77.8194,41.5118 67.5474,52.3428 44.8824,52.3428 L29.1404,52.3428 Z" id="Fill-14" fill="#FFFFFF" mask="url(#mask-8)"></path>
                </g>
                <path d="M125.7156,81.6099 C121.3616,87.1929 114.4396,92.5519 104.6136,92.5519 C94.1186,92.5519 86.6386,86.9689 86.6386,73.9059 L86.6386,45.8819 C86.6386,42.1979 85.2996,40.4119 80.8326,39.6309 L78.9356,39.2959 L78.9356,33.8239 L100.0366,30.0279 L103.8326,30.0279 L103.2746,41.4169 L103.2746,71.4499 C103.2746,78.4839 106.8476,81.3869 112.3186,81.3869 C117.7886,81.3869 121.9196,79.1539 125.7156,76.5859 L125.7156,45.8819 C125.7156,42.1979 124.3756,40.4119 119.7986,39.6309 L117.9006,39.2959 L117.9006,33.8239 L139.0016,30.0279 L142.7976,30.0279 L142.2396,41.4169 L142.2396,77.0319 C142.2396,80.8289 143.3566,82.3919 147.5996,82.6149 L150.3906,82.7269 L150.3906,88.7559 L128.3956,92.5519 L125.1576,92.5519 L125.7156,81.6099 Z" id="Fill-17" fill="#FFFFFF"></path>
                <g id="Group-21" transform="translate(147.000000, 0.147000)">
                    <mask id="mask-10" fill="white">
                        <use xlink:href="#path-9"></use>
                    </mask>
                    <g id="Clip-20"></g>
                    <path d="M52.6257,63.7109 C52.6257,50.8709 47.3787,41.1579 36.2137,41.1579 C31.3017,41.1579 27.0587,42.9439 23.9327,45.8469 L23.9327,72.6429 C23.9327,81.3519 28.9567,85.1479 36.3247,85.1479 C46.4847,85.1479 52.6257,76.8849 52.6257,63.7109 L52.6257,63.7109 Z M0.0397,9.2269 L0.0397,5.8769 L20.2477,0.8529 L24.4907,0.8529 L23.9327,10.5659 L23.9327,40.5999 C28.1747,34.3469 35.0977,29.8809 43.9177,29.8809 C60.3297,29.8809 69.7087,41.6049 69.7087,58.3519 C69.7087,79.6769 54.7477,92.4049 35.8787,92.4049 C23.0387,92.4049 13.8837,89.5019 7.2967,84.8129 L7.2967,13.9159 L0.0397,9.2269 Z" id="Fill-19" fill="#FFFFFF" mask="url(#mask-10)"></path>
                </g>
                <g id="Group-24" transform="translate(216.000000, 0.147000)">
                    <mask id="mask-12" fill="white">
                        <use xlink:href="#path-11"></use>
                    </mask>
                    <g id="Clip-23"></g>
                    <path d="M24.489,79.1182 C24.489,84.2542 27.281,84.8122 32.417,85.4822 L32.417,91.2882 L0.15,91.2882 L0.15,85.4822 C5.286,84.8122 7.966,84.2542 7.966,79.1182 L7.966,13.9152 L0.708,9.2262 L0.708,5.8772 L20.917,0.8522 L25.048,0.8522 L24.489,10.5662 L24.489,79.1182 Z" id="Fill-22" fill="#FFFFFF" mask="url(#mask-12)"></path>
                </g>
                <path d="M268.4001,2.7862 C274.7641,2.7862 278.8951,7.1402 278.8951,12.8342 C278.8951,18.3052 274.7641,22.6602 268.4001,22.6602 C262.1481,22.6602 258.1291,18.3052 258.1291,12.8342 C258.1291,7.1402 262.1481,2.7862 268.4001,2.7862 L268.4001,2.7862 Z M276.7741,79.2652 C276.7741,84.4012 279.5651,84.9592 284.7011,85.6292 L284.7011,91.4352 L252.4341,91.4352 L252.4341,85.6292 C257.5701,84.9592 260.2501,84.4012 260.2501,79.2652 L260.2501,44.2072 L252.9931,38.9602 L252.9931,35.6112 L273.2011,29.8052 L277.3321,29.8052 L276.7741,40.9702 L276.7741,79.2652 Z" id="Fill-25" fill="#FFFFFF"></path>
                <g id="Group-29" transform="translate(283.000000, 29.147000)">
                    <mask id="mask-14" fill="white">
                        <use xlink:href="#path-13"></use>
                    </mask>
                    <g id="Clip-28"></g>
                    <path d="M35.9763,50.6768 C44.0153,50.6768 49.4863,46.9918 53.2823,42.3028 L57.5253,44.4248 C53.9523,55.3658 45.3553,63.4048 30.1703,63.4048 C11.6373,63.4048 0.9183,50.5648 0.9183,34.0408 C0.9183,13.9448 14.9863,0.8818 33.7443,0.8818 C46.9173,0.8818 56.2963,6.9098 56.2963,16.2888 C56.2963,20.3078 54.3983,23.0998 51.6073,24.2158 L40.8893,24.2158 L40.8893,19.5268 C40.8893,12.7168 38.6563,8.1388 31.3993,8.1388 C22.5793,8.1388 16.3263,15.1728 16.3263,27.7888 C16.3263,41.8568 22.9133,50.6768 35.9763,50.6768" id="Fill-27" fill="#FFFFFF" mask="url(#mask-14)"></path>
                </g>
            </g>
        </g>
    </g>
</svg>